# xmcd
#
# Track frame offsets:
#	150
#	18036
#	38288
#	70135
#	79691
#	99421
#	111376
#	131039
#	165535
#	176040
#	192885
#	201886
#	230099
#	243698
#	260984
#	275015
#
# Disc length: 3829 seconds
# Revision: 1
# Processed by: cddbd v1.5.2PL0 Copyright (c) Steve Scherf et al.
# Submitted via: dBpowerAMP V12.0
#
DISCID=e20ef310
DTITLE=RayCharles,AKARayCharlesRobinson,Albany,GA - Ray Charles in Concert
DYEAR=2002
DGENRE=R&B
TTITLE0=NightTime}IsTheRightTime[liveInConcert]
TTITLE1=Talkin' Bout You[liveInConcert]
TTITLE2=Fool For You,A[liveInConcert]
TTITLE3=Swanee River Rock[liveInConcert]
TTITLE4=Spirit-Feel,The[liveInConcert]
TTITLE5=Yes Indeed[liveInConcert]
TTITLE6=What'd I Say[liveInConcert]
TTITLE7=Come Rain Or Come Shine[liveInConcert]
TTITLE8=Hit The Road Jack[liveInConcert]
TTITLE9=DangerZone,The[liveInConcert]
TTITLE10=Bye Bye Love[liveInConcert]
TTITLE11=Georgia On My Mind[liveInConcert]
TTITLE12=One Mint Julep[liveInConcert]
TTITLE13=I Believe To My Soul[liveInConcert]
TTITLE14=Unchain My Heart[liveInConcert]
TTITLE15=Baby, Don't You Cry[liveInConcert]
EXTD=
EXTT0=
EXTT1=
EXTT2=
EXTT3=
EXTT4=
EXTT5=
EXTT6=
EXTT7=
EXTT8=
EXTT9=
EXTT10=
EXTT11=
EXTT12=
EXTT13=
EXTT14=
EXTT15=
PLAYORDER=
